<svg width="249" height="249" viewBox="0 0 249 249" fill="none" xmlns="http://www.w3.org/2000/svg">
<path d="M152.585 76.2666C147.481 80.0846 141.297 82.1493 134.927 82.1493C123.11 82.1493 117.186 67.728 125.517 59.4072C130.02 54.8941 135.829 51.9995 142.158 51.0865C154.058 49.3642 159.298 34.6006 150.552 25.8234C141.785 17.0565 127.011 22.3063 125.289 34.2168C124.386 40.5144 121.471 46.3659 116.968 50.8686C108.605 59.2309 94.2257 53.2756 94.2257 41.4481C94.2257 35.0571 96.28 28.8944 100.108 23.7795C107.34 14.1411 100.554 0 88.1875 0C75.8309 0 69.0352 14.1307 76.2666 23.7899C80.0846 28.8944 82.1493 35.0882 82.1493 41.4481C82.1493 53.2964 67.7799 59.2412 59.4072 50.879C54.8941 46.3555 51.9995 40.5455 51.0865 34.2168C49.3642 22.3063 34.6006 17.0669 25.8234 25.8234C17.0669 34.6006 22.3063 49.3642 34.2168 51.0865C40.5144 51.9891 46.3762 54.9045 50.879 59.4072C59.2309 67.7799 53.286 82.1493 41.4481 82.1493C35.0675 82.1493 28.9047 80.095 23.7899 76.2666C14.1411 69.0352 0 75.8205 0 88.1875C0 100.544 14.1307 107.34 23.7899 100.108C28.8944 96.2904 35.0882 94.2257 41.4481 94.2257C53.2964 94.2257 59.2412 108.595 50.879 116.968C46.3555 121.481 40.5455 124.376 34.2271 125.289C22.3166 127.011 17.0669 141.774 25.8337 150.552C34.611 159.318 49.3746 154.069 51.0969 142.158C51.9995 135.861 54.9149 130.009 59.4176 125.506C67.7903 117.155 82.1596 123.099 82.1596 134.927C82.1596 141.318 80.1054 147.481 76.277 152.596C69.0456 162.213 75.7894 176.375 88.1875 176.375C100.513 176.375 107.381 162.275 100.098 152.564C96.2904 147.501 94.2257 141.339 94.2257 134.999C94.2257 123.131 108.595 117.134 116.968 125.496C121.481 130.02 124.386 135.829 125.289 142.148C127.011 154.058 141.785 159.308 150.552 150.541C159.298 141.795 154.1 126.98 142.127 125.278C135.861 124.396 130.03 121.491 125.548 117.009C117.154 108.626 123.068 94.2154 134.917 94.2154C141.307 94.2154 147.46 96.2696 152.575 100.098C162.213 107.329 176.375 100.586 176.375 88.1875C176.375 75.7998 162.223 69.0456 152.585 76.2666ZM73.7455 107.838C69.72 107.838 66.4622 104.58 66.4622 100.555C66.4622 96.529 69.72 93.2816 73.7455 93.2816C77.7606 93.2816 81.0184 96.5394 81.0184 100.555C81.0184 104.57 77.771 107.838 73.7455 107.838ZM83.0208 84.7326C76.7127 84.7326 71.6082 79.6178 71.6082 73.3201C71.6082 67.0121 76.7127 61.8973 83.0208 61.8973C89.3184 61.8973 94.4333 67.0121 94.4333 73.3201C94.4333 79.6178 89.3288 84.7326 83.0208 84.7326ZM104.528 106.551C99.185 106.551 94.8586 102.225 94.8586 96.8818C94.8586 91.5386 99.185 87.2226 104.528 87.2226C109.871 87.2226 114.208 91.549 114.208 96.8818C114.208 102.215 109.871 106.551 104.528 106.551ZM235.004 190.111C232.016 192.363 228.364 193.577 224.619 193.577C217.678 193.577 214.182 185.1 219.068 180.203C221.734 177.547 225.148 175.835 228.872 175.296C235.876 174.279 238.957 165.595 233.801 160.439C228.644 155.283 219.96 158.364 218.954 165.378C218.404 169.081 216.682 172.526 214.047 175.161C209.118 180.089 200.663 176.593 200.663 169.631C200.663 165.865 201.877 162.244 204.118 159.235C208.382 153.56 204.408 145.25 197.125 145.25C189.842 145.25 185.868 153.56 190.122 159.235C192.353 162.244 193.577 165.886 193.577 169.631C193.577 176.583 185.121 180.089 180.203 175.161C177.527 172.515 175.835 169.102 175.296 165.378C174.279 158.364 165.585 155.283 160.439 160.439C155.272 165.595 158.364 174.279 165.388 175.296C169.071 175.825 172.516 177.547 175.172 180.203C180.089 185.121 176.593 193.577 169.642 193.577C165.865 193.577 162.244 192.363 159.225 190.111C153.56 185.858 145.25 189.852 145.25 197.125C145.25 204.398 153.56 208.392 159.235 204.139C162.255 201.887 165.907 200.673 169.652 200.673C176.603 200.673 180.11 209.129 175.182 214.047C172.516 216.703 169.081 218.415 165.398 218.954C158.374 219.971 155.283 228.655 160.449 233.811C165.595 238.967 174.29 235.886 175.306 228.872C175.846 225.169 177.568 221.724 180.203 219.089C185.132 214.161 193.587 217.657 193.587 224.619C193.587 228.385 192.373 232.006 190.132 235.015C185.868 240.669 189.831 249 197.125 249C204.367 249 208.423 240.7 204.128 234.994C201.887 232.026 200.673 228.385 200.673 224.66C200.673 217.688 209.129 214.15 214.057 219.058C216.723 221.714 218.414 225.137 218.964 228.862C219.971 235.876 228.655 238.957 233.811 233.801C238.967 228.655 235.896 219.94 228.852 218.944C225.179 218.415 221.745 216.713 219.12 214.078C214.161 209.139 217.647 200.663 224.629 200.663C228.385 200.663 231.995 201.877 235.015 204.128C240.679 208.371 249 204.419 249 197.125C249 189.831 240.679 185.858 235.004 190.111ZM188.628 208.683C186.273 208.683 184.364 206.774 184.364 204.398C184.364 202.032 186.283 200.113 188.628 200.113C191.004 200.113 192.923 202.032 192.923 204.398C192.923 206.774 190.993 208.683 188.628 208.683ZM194.085 195.092C190.392 195.092 187.383 192.083 187.383 188.379C187.383 184.665 190.381 181.666 194.085 181.666C197.789 181.666 200.808 184.665 200.808 188.379C200.808 192.083 197.789 195.092 194.085 195.092ZM206.743 207.925C203.599 207.925 201.067 205.383 201.067 202.25C201.067 199.117 203.599 196.554 206.743 196.554C209.886 196.554 212.428 199.107 212.428 202.25C212.428 205.394 209.876 207.925 206.743 207.925Z" fill="#28BB25"/>
</svg>
